<svg preserveAspectRatio="none" overflow="visible" style="display: block;" width="20" height="20" viewBox="0 0 20 20" fill="none" xmlns="http://www.w3.org/2000/svg">
<g id="Icons">
<path id="Vector" d="M3.15256 2.35498L10 0.833333L16.8474 2.35498C17.2287 2.43972 17.5 2.77789 17.5 3.16848V11.4908C17.5 13.1625 16.6645 14.7237 15.2735 15.651L10 19.1667L4.7265 15.651C3.33551 14.7237 2.5 13.1625 2.5 11.4908V3.16848C2.5 2.77789 2.77128 2.43972 3.15256 2.35498ZM4.16667 3.83695V11.4908C4.16667 12.6053 4.72367 13.646 5.651 14.2643L10 17.1636L14.349 14.2643C15.2763 13.646 15.8333 12.6053 15.8333 11.4908V3.83695L10 2.54066L4.16667 3.83695Z" fill="#302E38"/>
</g>
</svg>
