<svg preserveAspectRatio="none" overflow="visible" style="display: block;" width="24" height="24" viewBox="0 0 24 24" fill="none" xmlns="http://www.w3.org/2000/svg">
<g id="dot-vertical">
<g id="Icon">
<path d="M12 7.2C10.6745 7.2 9.6 6.12548 9.6 4.8C9.6 3.47452 10.6745 2.4 12 2.4C13.3255 2.4 14.4 3.47452 14.4 4.8C14.4 6.12548 13.3255 7.2 12 7.2Z" fill="#27202C"/>
<path d="M12 14.4C10.6745 14.4 9.6 13.3255 9.6 12C9.6 10.6745 10.6745 9.6 12 9.6C13.3255 9.6 14.4 10.6745 14.4 12C14.4 13.3255 13.3255 14.4 12 14.4Z" fill="#27202C"/>
<path d="M12 21.6C10.6745 21.6 9.6 20.5255 9.6 19.2C9.6 17.8745 10.6745 16.8 12 16.8C13.3255 16.8 14.4 17.8745 14.4 19.2C14.4 20.5255 13.3255 21.6 12 21.6Z" fill="#27202C"/>
</g>
</g>
</svg>
