<svg preserveAspectRatio="none" overflow="visible" style="display: block;" width="16" height="16" viewBox="0 0 16 16" fill="none" xmlns="http://www.w3.org/2000/svg">
<g id="Frame" clip-path="url(#clip0_0_162)">
<path id="Vector" d="M13.8089 5.41874L13.6445 5.79586C13.5243 6.07195 13.1424 6.07195 13.0221 5.79586L12.8577 5.41874C12.5647 4.74631 12.037 4.21094 11.3785 3.91805L10.872 3.69281C10.5982 3.57102 10.5982 3.17254 10.872 3.05075L11.3501 2.83809C12.0256 2.53767 12.5628 1.98249 12.8507 1.28722L13.0195 0.879687C13.1372 0.59566 13.5295 0.59566 13.6471 0.879687L13.8159 1.28722C14.1039 1.98249 14.6411 2.53767 15.3165 2.83809L15.7946 3.05075C16.0685 3.17254 16.0685 3.57102 15.7946 3.69281L15.2882 3.91805C14.6297 4.21094 14.1019 4.74631 13.8089 5.41874ZM13.3333 7.33333C13.7991 7.33333 14.2463 7.25373 14.6619 7.1074C14.6651 7.18233 14.6667 7.25767 14.6667 7.33333C14.6667 10.2789 12.2789 12.6667 9.33333 12.6667V15C6 13.6667 1.33333 11.6667 1.33333 7.33333C1.33333 4.38781 3.72115 2 6.66667 2H9.33333C9.409 2 9.48433 2.00158 9.55927 2.0047C9.41293 2.42041 9.33333 2.86757 9.33333 3.33333C9.33333 5.54247 11.1242 7.33333 13.3333 7.33333Z" fill="black"/>
</g>
<defs>
<clipPath id="clip0_0_162">
<rect width="16" height="16" fill="white"/>
</clipPath>
</defs>
</svg>
